# xmcd
#
# Track frame offsets: 
#        183
#        68415
#        113695
#        149933
#        214710
#        255103
#
# Disc length: 3927 seconds
#
# Revision: 5
# Processed by: cddbd v1.5.2PL0 Copyright (c) Steve Scherf et al.
# Submitted via: ExactAudioCopy v1.1
#
DISCID=500f5506
DTITLE=Clifford Curzon and Benjamin Britten and English Chamber Orchestra 
DTITLE=/ Mozart Piano Concertos No 20 and 27
DYEAR=1970
DGENRE=Classical
TTITLE0=Mozart Piano Concerto No 20 in d minor KV 466 - 1 Allegro
TTITLE1=Mozart Piano Concerto No 20 in d minor KV 466 - 2 Romance
TTITLE2=Mozart Piano Concerto No 20 in d minor KV 466 - 3 Rondo Allegr
TTITLE2=o assai
TTITLE3=Mozart Piano Concerto No 27 in B Flat KV 595 - 1 Allegro
TTITLE4=Mozart Piano Concerto No 27 in B Flat KV 595 - 2 Larghetto
TTITLE5=Mozart Piano Concerto No 27 in B Flat KV 595 - 3 Allegro
EXTD=Wolfgang Amadeus MOZART: \nPiano Concerto No.20 in D minor, K.466
EXTD=\nPiano Concerto No.27 in B flat major, K.595 \nClifford Curzon,
EXTD=piano \nEnglish Chamber Orchestra \nBenjamin Britten, conductor 
EXTD=\nRecorded at The Maltings, Snape, 24 and 25 September, 1970. \n   
EXTD=Ripped and uploaded by *Berthold de Lacu* \n      uncle-osvald
EXTD=s-music.blogspot.com
EXTT0=
EXTT1=
EXTT2=
EXTT3=
EXTT4=
EXTT5=
PLAYORDER=
